<?xml version="1.0" encoding="utf-8"?>
<!-- Generator: Adobe Illustrator 28.2.0, SVG Export Plug-In . SVG Version: 6.00 Build 0)  -->
<svg version="1.1" id="Layer_1" xmlns="http://www.w3.org/2000/svg" xmlns:xlink="http://www.w3.org/1999/xlink" x="0px" y="0px"
	 viewBox="0 0 1920 1080" style="enable-background:new 0 0 1920 1080;" xml:space="preserve">
<style type="text/css">
	.st0{fill:#FBAC18;}
	.st1{fill:#F2F2F2;}
	.st2{fill:#F7911E;}
	.st3{fill:#E2E2E2;}
	.st4{fill:#FFFFFF;}
	.st5{fill:#FFCA06;}
	.st6{fill:#FECF0A;}
</style>
<g>
	<g>
		<g>
			<path class="st0" d="M1584.6,514.3L1584.6,514.3c-0.3-71.5-58.4-129.4-129.9-129.4c-71.8,0-129.9,58.2-129.9,129.9
				c0,71.8,58.2,129.9,129.9,129.9c39.4,0,74.7-17.6,98.5-45.3c-11.8-15.5-20.5-33.6-25-53.3c-12.2,28.5-40.6,48.6-73.5,48.6
				c-44.1,0-79.9-35.9-79.9-79.9c0-44.1,35.9-79.9,79.9-79.9c44.1,0,79.9,35.9,79.9,79.9h0c0.3,71.5,58.4,129.4,129.9,129.4v-50
				C1620.4,594.3,1584.6,558.4,1584.6,514.3z"/>
			<path class="st1" d="M1580,384.9c-14.9-55.3-65.4-96-125.4-96c-0.6,0-86.6,0-87.2,0v50c0.6,0,86.6,0,87.2,0
				c36.9,0,68.1,25.2,77.2,59.3c23.5,15.6,42.1,38.2,52.7,64.8v-28.1h79.9v-50H1580z"/>
			<g>
				<path class="st2" d="M1521.8,558.2c-3.8,5.8-8.3,11.2-13.4,15.9c-25.9,26.4-62,42.8-101.9,42.8c-13.5,0-26.5-1.9-38.8-5.4
					c23,20.7,53.5,33.4,86.9,33.4c39.4,0,74.7-17.6,98.5-45.3c-11.5-15.1-19.9-32.6-24.6-51.6
					C1526.5,551.5,1524.2,554.9,1521.8,558.2z"/>
				<path class="st2" d="M1584.6,514.3L1584.6,514.3c-0.2-40.9-19.3-77.4-49-101.1c8.7,18.5,13.6,39.1,13.6,60.9
					c0,21.3-4.7,41.6-13.1,59.7c9.4,62.5,63.3,110.4,128.5,110.4v-50C1620.4,594.3,1584.6,558.4,1584.6,514.3z"/>
			</g>
			<path class="st3" d="M1367.5,292V339c0.6,0,86.5,0,87.1,0c12.8,0,24.9,3,35.6,8.4C1482.3,326,1384,307.1,1367.5,292z"/>
			<path class="st4" d="M1580,384.9c-14.9-55.3-65.4-96-125.4-96c-0.6,0-1.1,0-1.7,0v0.3c64.2,13.9,112.3,71,112.3,139.4
				c0,0.2,0,0.3,0,0.5c7.9,10.2,14.5,21.6,19.4,33.8v-28.1l130-0.2v-50L1580,384.9z"/>
			<path class="st5" d="M1374.7,514.9c0-44.1,35.9-79.9,79.9-79.9c22.6,0,43,9.4,57.6,24.6c7.9-16.2,12.8-34.2,14-53.1
				c-20.5-13.6-45.1-21.5-71.6-21.5c-71.8,0-129.9,58.2-129.9,129.9c0,4.2,0.2,8.3,0.6,12.4c16.4,7.4,34.4,11.8,53.4,12.4
				C1376.1,531.9,1374.7,523.6,1374.7,514.9z"/>
			<g>
				<path class="st1" d="M1405.9,402.6c-10.2,6.4-14.9,17.3-10.5,24.5c4.5,7.1,16.4,7.7,26.6,1.4c10.2-6.4,14.9-17.3,10.5-24.5
					C1428,396.9,1416.1,396.3,1405.9,402.6z"/>
				<path class="st1" d="M1370.8,430.9c-2.2,5,0,10.8,5,13.1c5,2.2,10.8,0,13.1-5c2.2-5,0-10.8-5-13.1
					C1378.9,423.7,1373,426,1370.8,430.9z"/>
			</g>
			<path class="st2" d="M1664.5,594.3c0,0,30.3,2.5,49.7-25.5v58.8c0,0-11.4,14.2-49.7,16.7C1664.5,644.3,1664.3,594.1,1664.5,594.3
				z"/>
		</g>
	</g>
	<g>
		<path class="st4" d="M416.3,542.5c0,58.6-42.6,97.8-97.3,97.8H197.6V301.5h98.7c59,0,93.9,30.5,93.9,80.3
			c0,41.1-19.4,62.9-35.8,73.6C395,471.4,416.3,502.3,416.3,542.5z M245,345.1v90h56.1c23.7,0,41.6-24.2,41.6-46.5
			c0-24.7-13.1-43.6-46.5-43.6H245z M368.9,535.2c0-27.6-18.9-53.2-54.2-53.2H245v114.7h73.6C347.6,596.7,368.9,569.6,368.9,535.2z"
			/>
		<path class="st4" d="M442.9,335.9c0-16.5,12.6-29,29-29c16,0,28.6,12.6,28.6,29c0,16.5-12.6,29-28.6,29
			C455.5,364.9,442.9,352.3,442.9,335.9z M448.3,398.3h47.4v242h-47.4V398.3z"/>
		<path class="st4" d="M747.3,640.3h-47.4V513c0-49.4-21.3-72.6-59-72.6c-37.7,0-59,23.2-59,72.6v127.3h-47.4V513
			c0-81.3,44.5-118.6,106.5-118.6S747.3,431.7,747.3,513V640.3z"/>
		<path class="st4" d="M784.6,662h57.1c14.5,18.4,33.9,29,57.1,29c41.6,0,76.5-27.1,76.5-67.8v-11.1c-18.9,19.4-46,31.9-76.5,31.9
			c-69.2,0-124.9-55.7-124.9-124.9c0-69.2,55.7-124.9,124.9-124.9s124.9,55.7,124.9,124.9v92.9c0,69.2-55.7,124.9-124.9,124.9
			C848,737.1,804,706.6,784.6,662z M976.2,519.3c0-44-32.4-78.9-76.9-78.9c-44.5,0-77.9,34.8-77.9,78.9c0,44,33.9,78.9,77.9,78.9
			C943.3,598.2,976.2,563.3,976.2,519.3z"/>
		<path class="st4" d="M1173.2,394.4c62.4,0,122.4,45.5,124.9,120.5c0,8.2-0.5,15.5-1.5,21.8h-195.5c3.9,35.8,32.9,61.5,72.1,61.5
			c26.6,0,45.5-10.6,58.1-24.2l56.6,0.5c-20.8,41.6-64.4,69.7-113.2,69.7c-69.7,0-124.4-55.7-124.4-124.4
			C1050.3,451.5,1103.5,394.4,1173.2,394.4z M1247.2,498c-8.7-32.9-37.7-57.6-72.6-57.6c-37.7,0-64.8,24.7-73.6,57.6H1247.2z"/>
	</g>
	<g>
		<path class="st6" d="M1052.2,689.9h21.7l35.3,54.8l35.3-54.8h21.7v115.9h-20.4v-83.1l-36.6,54.6h-0.7l-36.2-54.3v82.8h-20V689.9z"
			/>
		<path class="st6" d="M1229,689.9h85.9v18.2h-65.5v30.1h58.1v18.4h-58.1v31h66.4v18.2H1229V689.9z"/>
		<path class="st6" d="M1373,689.9h43.2c36.4,0,61.6,25,61.6,57.6v0.3c0,32.6-25.2,57.9-61.6,57.9H1373V689.9z M1393.3,708.4v78.8
			h22.8c24.3,0,40.2-16.4,40.2-39.1v-0.3c0-22.7-15.9-39.4-40.2-39.4H1393.3z"/>
		<path class="st6" d="M1536.7,689.9h20.4v115.9h-20.4V689.9z"/>
		<path class="st6" d="M1662.1,689h18.9l51,116.7h-21.5l-11.8-28h-54.8l-11.9,28h-20.9L1662.1,689z M1691.3,759.7l-20-46.3
			l-19.9,46.3H1691.3z"/>
	</g>
</g>
</svg>
