<?xml version="1.0" encoding="utf-8"?>
<!-- Generator: Adobe Illustrator 28.2.0, SVG Export Plug-In . SVG Version: 6.00 Build 0)  -->
<svg version="1.1" id="Layer_1" xmlns="http://www.w3.org/2000/svg" xmlns:xlink="http://www.w3.org/1999/xlink" x="0px" y="0px"
	 viewBox="0 0 452 189" style="enable-background:new 0 0 452 189;" xml:space="preserve">
<style type="text/css">
	.st0{fill:#FFAC00;}
	.st1{fill:#F1F1F1;}
	.st2{fill:#FF9100;}
	.st3{fill:#E2E2E2;}
	.st4{fill:#FFFFFF;}
	.st5{fill:#FFC900;}
	.st6{fill:#FFCE00;}
</style>
<g>
	<g>
		<g>
			<path class="st0" d="M398.8,89.2L398.8,89.2c-0.1-19.3-15.8-35-35.2-35c-19.4,0-35.2,15.7-35.2,35.2c0,19.4,15.7,35.2,35.2,35.2
				c10.7,0,20.2-4.8,26.7-12.3c-3.2-4.2-5.5-9.1-6.8-14.4c-3.3,7.7-11,13.1-19.9,13.1c-11.9,0-21.6-9.7-21.6-21.6
				c0-11.9,9.7-21.6,21.6-21.6c11.9,0,21.6,9.7,21.6,21.6h0c0.1,19.3,15.8,35,35.1,35v-13.5C408.5,110.8,398.8,101.1,398.8,89.2z"/>
			<path class="st1" d="M397.6,54.2c-4-15-17.7-26-33.9-26c-0.2,0-23.4,0-23.6,0v13.5c0.2,0,23.4,0,23.6,0c10,0,18.4,6.8,20.9,16
				c6.4,4.2,11.4,10.3,14.3,17.5v-7.6h21.6V54.2H397.6z"/>
			<g>
				<path class="st2" d="M381.8,101c-1,1.6-2.2,3-3.6,4.3c-7,7.1-16.8,11.6-27.6,11.6c-3.6,0-7.2-0.5-10.5-1.5
					c6.2,5.6,14.5,9,23.5,9c10.7,0,20.2-4.8,26.7-12.3c-3.1-4.1-5.4-8.8-6.6-13.9C383.1,99.2,382.5,100.2,381.8,101z"/>
				<path class="st2" d="M398.8,89.2L398.8,89.2c-0.1-11.1-5.2-20.9-13.3-27.3c2.4,5,3.7,10.6,3.7,16.5c0,5.8-1.3,11.2-3.5,16.2
					c2.6,16.9,17.1,29.9,34.7,29.9v-13.5C408.5,110.8,398.8,101.1,398.8,89.2z"/>
			</g>
			<path class="st3" d="M340.1,29v12.7c0.2,0,23.4,0,23.6,0c3.5,0,6.7,0.8,9.6,2.3C371.2,38.3,344.6,33.1,340.1,29z"/>
			<path class="st4" d="M397.6,54.2c-4-15-17.7-26-33.9-26c-0.2,0-0.3,0-0.5,0v0.1c17.4,3.8,30.4,19.2,30.4,37.7c0,0,0,0.1,0,0.1
				c2.1,2.8,3.9,5.8,5.2,9.1v-7.6l35.2,0V54.2L397.6,54.2z"/>
			<path class="st5" d="M342.1,89.3c0-11.9,9.7-21.6,21.6-21.6c6.1,0,11.6,2.6,15.6,6.6c2.1-4.4,3.5-9.2,3.8-14.4
				c-5.6-3.7-12.2-5.8-19.4-5.8c-19.4,0-35.2,15.7-35.2,35.2c0,1.1,0.1,2.3,0.2,3.4c4.4,2,9.3,3.2,14.4,3.4
				C342.4,94,342.1,91.7,342.1,89.3z"/>
			<g>
				<path class="st1" d="M350.5,59c-2.8,1.7-4,4.7-2.8,6.6c1.2,1.9,4.4,2.1,7.2,0.4c2.8-1.7,4-4.7,2.8-6.6
					C356.5,57.4,353.3,57.3,350.5,59z"/>
				<path class="st1" d="M341,66.6c-0.6,1.3,0,2.9,1.3,3.5c1.3,0.6,2.9,0,3.5-1.3s0-2.9-1.3-3.5C343.2,64.7,341.6,65.3,341,66.6z"/>
			</g>
			<path class="st2" d="M420.5,110.8c0,0,8.2,0.7,13.4-6.9v15.9c0,0-3.1,3.8-13.4,4.5C420.5,124.3,420.4,110.8,420.5,110.8z"/>
		</g>
	</g>
	<g>
		<path class="st4" d="M82.8,96.8c0,15.8-11.5,26.4-26.3,26.4H23.6V31.6h26.7c16,0,25.4,8.2,25.4,21.7c0,11.1-5.2,17-9.7,19.9
			C77.1,77.6,82.8,86,82.8,96.8z M36.5,43.4v24.3h15.2c6.4,0,11.3-6.5,11.3-12.6c0-6.7-3.5-11.8-12.6-11.8H36.5z M70,94.9
			c0-7.5-5.1-14.4-14.7-14.4H36.5v31h19.9C64.2,111.5,70,104.1,70,94.9z"/>
		<path class="st4" d="M90,40.9c0-4.5,3.4-7.9,7.9-7.9c4.3,0,7.7,3.4,7.7,7.9s-3.4,7.9-7.7,7.9C93.4,48.8,90,45.4,90,40.9z
			 M91.5,57.8h12.8v65.5H91.5V57.8z"/>
		<path class="st4" d="M172.4,123.3h-12.8V88.8c0-13.4-5.8-19.6-16-19.6c-10.2,0-16,6.3-16,19.6v34.4h-12.8V88.8
			c0-22,12-32.1,28.8-32.1s28.8,10.1,28.8,32.1V123.3z"/>
		<path class="st4" d="M182.4,129.2h15.4c3.9,5,9.2,7.9,15.4,7.9c11.3,0,20.7-7.3,20.7-18.3v-3c-5.1,5.2-12.4,8.6-20.7,8.6
			c-18.7,0-33.8-15.1-33.8-33.8c0-18.7,15.1-33.8,33.8-33.8c18.7,0,33.8,15.1,33.8,33.8v25.1c0,18.7-15.1,33.8-33.8,33.8
			C199.6,149.4,187.7,141.2,182.4,129.2z M234.3,90.5c0-11.9-8.8-21.3-20.8-21.3c-12,0-21.1,9.4-21.1,21.3s9.2,21.3,21.1,21.3
			C225.4,111.9,234.3,102.4,234.3,90.5z"/>
		<path class="st4" d="M287.6,56.8c16.9,0,33.1,12.3,33.8,32.6c0,2.2-0.1,4.2-0.4,5.9H268c1,9.7,8.9,16.6,19.5,16.6
			c7.2,0,12.3-2.9,15.7-6.5l15.3,0.1c-5.6,11.3-17.4,18.8-30.6,18.8c-18.9,0-33.6-15.1-33.6-33.6C254.3,72.2,268.7,56.8,287.6,56.8z
			 M307.6,84.8c-2.4-8.9-10.2-15.6-19.6-15.6c-10.2,0-17.5,6.7-19.9,15.6H307.6z"/>
	</g>
	<g>
		<path class="st6" d="M254.8,136.7h5.9l9.5,14.8l9.5-14.8h5.9V168h-5.5v-22.5l-9.9,14.8H270l-9.8-14.7V168h-5.4V136.7z"/>
		<path class="st6" d="M302.6,136.7h23.2v4.9h-17.7v8.1h15.7v5h-15.7v8.4h18v4.9h-23.5V136.7z"/>
		<path class="st6" d="M341.6,136.7h11.7c9.8,0,16.7,6.8,16.7,15.6v0.1c0,8.8-6.8,15.7-16.7,15.7h-11.7V136.7z M347.1,141.7V163h6.2
			c6.6,0,10.9-4.4,10.9-10.6v-0.1c0-6.1-4.3-10.7-10.9-10.7H347.1z"/>
		<path class="st6" d="M385.9,136.7h5.5V168h-5.5V136.7z"/>
		<path class="st6" d="M419.8,136.5h5.1l13.8,31.6h-5.8l-3.2-7.6h-14.8l-3.2,7.6H406L419.8,136.5z M427.7,155.6l-5.4-12.5l-5.4,12.5
			H427.7z"/>
	</g>
</g>
</svg>
