<?xml version="1.0" encoding="utf-8"?>
<!-- Generator: Adobe Illustrator 28.2.0, SVG Export Plug-In . SVG Version: 6.00 Build 0)  -->
<svg version="1.1" id="Layer_1" xmlns="http://www.w3.org/2000/svg" xmlns:xlink="http://www.w3.org/1999/xlink" x="0px" y="0px"
	 viewBox="0 0 1920 1080" style="enable-background:new 0 0 1920 1080;" xml:space="preserve">
<style type="text/css">
	.st0{fill:#FBAC18;}
	.st1{fill:#F2F2F2;}
	.st2{fill:#F7911E;}
	.st3{fill:#E2E2E2;}
	.st4{fill:#FFFFFF;}
	.st5{fill:#FFCA06;}
	.st6{font-family:'FONTSPRINGDEMO-NordiqueProSemiboldRegular';}
	.st7{font-size:483.9416px;}
	.st8{fill:#FECF0A;}
	.st9{font-family:'Gotham-Medium';}
	.st10{font-size:165.5127px;}
</style>
<g>
	<g>
		<g>
			<path class="st0" d="M1584.6,514.3L1584.6,514.3c-0.3-71.5-58.4-129.4-129.9-129.4c-71.8,0-129.9,58.2-129.9,129.9
				c0,71.8,58.2,129.9,129.9,129.9c39.4,0,74.7-17.6,98.5-45.3c-11.8-15.5-20.5-33.6-25-53.3c-12.2,28.5-40.6,48.6-73.5,48.6
				c-44.1,0-79.9-35.9-79.9-79.9c0-44.1,35.9-79.9,79.9-79.9c44.1,0,79.9,35.9,79.9,79.9h0c0.3,71.5,58.4,129.4,129.9,129.4v-50
				C1620.4,594.3,1584.6,558.4,1584.6,514.3z"/>
			<path class="st1" d="M1580,384.9c-14.9-55.3-65.4-96-125.4-96c-0.6,0-86.6,0-87.2,0v50c0.6,0,86.6,0,87.2,0
				c36.9,0,68.1,25.2,77.2,59.3c23.5,15.6,42.1,38.2,52.7,64.8v-28.1h79.9v-50H1580z"/>
			<g>
				<path class="st2" d="M1521.8,558.2c-3.8,5.8-8.3,11.2-13.4,15.9c-25.9,26.4-62,42.8-101.9,42.8c-13.5,0-26.5-1.9-38.8-5.4
					c23,20.7,53.5,33.4,86.9,33.4c39.4,0,74.7-17.6,98.5-45.3c-11.5-15.1-19.9-32.6-24.6-51.6
					C1526.5,551.5,1524.2,554.9,1521.8,558.2z"/>
				<path class="st2" d="M1584.6,514.3L1584.6,514.3c-0.2-40.9-19.3-77.4-49-101.1c8.7,18.5,13.6,39.1,13.6,60.9
					c0,21.3-4.7,41.6-13.1,59.7c9.4,62.5,63.3,110.4,128.5,110.4v-50C1620.4,594.3,1584.6,558.4,1584.6,514.3z"/>
			</g>
			<path class="st3" d="M1367.5,292V339c0.6,0,86.5,0,87.1,0c12.8,0,24.9,3,35.6,8.4C1482.3,326,1384,307.1,1367.5,292z"/>
			<path class="st4" d="M1580,384.9c-14.9-55.3-65.4-96-125.4-96c-0.6,0-1.1,0-1.7,0v0.3c64.2,13.9,112.3,71,112.3,139.4
				c0,0.2,0,0.3,0,0.5c7.9,10.2,14.5,21.6,19.4,33.8v-28.1l130-0.2v-50L1580,384.9z"/>
			<path class="st5" d="M1374.7,514.9c0-44.1,35.9-79.9,79.9-79.9c22.6,0,43,9.4,57.6,24.6c7.9-16.2,12.8-34.2,14-53.1
				c-20.5-13.6-45.1-21.5-71.6-21.5c-71.8,0-129.9,58.2-129.9,129.9c0,4.2,0.2,8.3,0.6,12.4c16.4,7.4,34.4,11.8,53.4,12.4
				C1376.1,531.9,1374.7,523.6,1374.7,514.9z"/>
			<g>
				<path class="st1" d="M1405.9,402.6c-10.2,6.4-14.9,17.3-10.5,24.5c4.5,7.1,16.4,7.7,26.6,1.4c10.2-6.4,14.9-17.3,10.5-24.5
					C1428,396.9,1416.1,396.3,1405.9,402.6z"/>
				<path class="st1" d="M1370.8,430.9c-2.2,5,0,10.8,5,13.1c5,2.2,10.8,0,13.1-5c2.2-5,0-10.8-5-13.1
					C1378.9,423.7,1373,426,1370.8,430.9z"/>
			</g>
			<path class="st2" d="M1664.5,594.3c0,0,30.3,2.5,49.7-25.5v58.8c0,0-11.4,14.2-49.7,16.7C1664.5,644.3,1664.3,594.1,1664.5,594.3
				z"/>
		</g>
	</g>
	<text transform="matrix(1 0 0 1 183.0547 640.2627)" class="st4 st6 st7">Binge</text>
	<text transform="matrix(1 0 0 1 1037.3232 805.7324)" class="st8 st9 st10">MEDIA</text>
</g>
</svg>
