<?xml version="1.0" encoding="utf-8"?>
<!-- Generator: Adobe Illustrator 28.2.0, SVG Export Plug-In . SVG Version: 6.00 Build 0)  -->
<svg version="1.1" id="Layer_1" xmlns="http://www.w3.org/2000/svg" xmlns:xlink="http://www.w3.org/1999/xlink" x="0px" y="0px"
	 viewBox="0 0 1080 1080" style="enable-background:new 0 0 1080 1080;" xml:space="preserve">
<style type="text/css">
	.st0{display:none;fill:url(#SVGID_1_);}
	.st1{fill:#FFAC00;}
	.st2{fill:#F1F1F1;}
	.st3{fill:#FF9100;}
	.st4{fill:#E2E2E2;}
	.st5{fill:#FFFFFF;}
	.st6{fill:#FFC900;}
	.st7{font-family:'FONTSPRINGDEMO-NordiqueProSemiboldRegular';}
	.st8{font-size:245.2704px;}
	.st9{fill:#FFCE00;}
	.st10{font-family:'Gotham-Medium';}
	.st11{font-size:83.8848px;}
</style>
<linearGradient id="SVGID_1_" gradientUnits="userSpaceOnUse" x1="-5.9307" y1="541.7276" x2="1106.3219" y2="541.7276">
	<stop  offset="0" style="stop-color:#8400C7"/>
	<stop  offset="0.2651" style="stop-color:#8000D1"/>
	<stop  offset="0.7074" style="stop-color:#7700EA"/>
	<stop  offset="1" style="stop-color:#6F00FF"/>
</linearGradient>
<rect x="-5.9" y="-10" class="st0" width="1112.3" height="1103.5"/>
<g>
	<g>
		<g>
			<path class="st1" d="M856.5,527L856.5,527c-0.2-36.2-29.6-65.6-65.9-65.6c-36.4,0-65.9,29.5-65.9,65.9
				c0,36.4,29.5,65.9,65.9,65.9c20,0,37.9-8.9,49.9-23c-6-7.9-10.4-17-12.7-27c-6.2,14.5-20.6,24.6-37.3,24.6
				c-22.3,0-40.5-18.2-40.5-40.5c0-22.3,18.2-40.5,40.5-40.5c22.3,0,40.5,18.2,40.5,40.5h0c0.2,36.2,29.6,65.6,65.9,65.6v-25.3
				C874.7,567.5,856.5,549.3,856.5,527z"/>
			<path class="st2" d="M854.3,461.4c-7.6-28-33.2-48.6-63.6-48.6c-0.3,0-43.9,0-44.2,0v25.3c0.3,0,43.9,0,44.2,0
				c18.7,0,34.5,12.8,39.1,30c11.9,7.9,21.3,19.4,26.7,32.8v-14.2h40.5v-25.3H854.3z"/>
			<g>
				<path class="st3" d="M824.7,549.2c-1.9,3-4.2,5.7-6.8,8c-13.1,13.4-31.4,21.7-51.6,21.7c-6.8,0-13.4-1-19.7-2.7
					c11.7,10.5,27.1,16.9,44.1,16.9c20,0,37.9-8.9,49.9-23c-5.8-7.6-10.1-16.5-12.5-26.1C827.1,545.8,825.9,547.5,824.7,549.2z"/>
				<path class="st3" d="M856.5,527L856.5,527c-0.1-20.8-9.8-39.2-24.9-51.2c4.4,9.4,6.9,19.8,6.9,30.9c0,10.8-2.4,21.1-6.6,30.3
					c4.8,31.7,32.1,55.9,65.1,55.9v-25.3C874.7,567.5,856.5,549.3,856.5,527z"/>
			</g>
			<path class="st4" d="M746.5,414.3v23.8c0.3,0,43.9,0,44.1,0c6.5,0,12.6,1.5,18,4.2C804.7,431.5,754.9,422,746.5,414.3z"/>
			<path class="st5" d="M854.3,461.4c-7.6-28-33.2-48.6-63.6-48.6c-0.3,0-0.6,0-0.9,0v0.2c32.5,7.1,56.9,36,56.9,70.7
				c0,0.1,0,0.2,0,0.3c4,5.2,7.3,10.9,9.8,17.1v-14.2l65.9-0.1v-25.3L854.3,461.4z"/>
			<path class="st6" d="M750.2,527.3c0-22.3,18.2-40.5,40.5-40.5c11.5,0,21.8,4.8,29.2,12.5c4-8.2,6.5-17.3,7.1-26.9
				c-10.4-6.9-22.9-10.9-36.3-10.9c-36.4,0-65.9,29.5-65.9,65.9c0,2.1,0.1,4.2,0.3,6.3c8.3,3.7,17.4,6,27.1,6.3
				C750.9,535.9,750.2,531.7,750.2,527.3z"/>
			<g>
				<path class="st2" d="M766,470.4c-5.2,3.2-7.6,8.8-5.3,12.4s8.3,3.9,13.5,0.7c5.2-3.2,7.6-8.8,5.3-12.4
					C777.2,467.5,771.2,467.1,766,470.4z"/>
				<path class="st2" d="M748.2,484.7c-1.1,2.5,0,5.5,2.5,6.6c2.5,1.1,5.5,0,6.6-2.5c1.1-2.5,0-5.5-2.5-6.6
					C752.3,481.1,749.3,482.2,748.2,484.7z"/>
			</g>
			<path class="st3" d="M897.1,567.5c0,0,15.4,1.3,25.2-12.9v29.8c0,0-5.8,7.2-25.2,8.5C897.1,592.9,897,567.4,897.1,567.5z"/>
		</g>
	</g>
	<text transform="matrix(1 0 0 1 146.2301 590.8148)" class="st5 st7 st8">Binge</text>
	<text transform="matrix(1 0 0 1 579.1888 674.6787)" class="st9 st10 st11">MEDIA</text>
</g>
</svg>
