<?xml version="1.0" encoding="utf-8"?>
<!-- Generator: Adobe Illustrator 28.2.0, SVG Export Plug-In . SVG Version: 6.00 Build 0)  -->
<svg version="1.1" id="Layer_1" xmlns="http://www.w3.org/2000/svg" xmlns:xlink="http://www.w3.org/1999/xlink" x="0px" y="0px"
	 viewBox="0 0 452 189" style="enable-background:new 0 0 452 189;" xml:space="preserve">
<style type="text/css">
	.st0{fill:#FFAC00;}
	.st1{fill:#F1F1F1;}
	.st2{fill:#FF9100;}
	.st3{fill:#E2E2E2;}
	.st4{fill:#FFFFFF;}
	.st5{fill:#FFC900;}
	.st6{font-family:'FONTSPRINGDEMO-NordiqueProSemiboldRegular';}
	.st7{font-size:130.9073px;}
	.st8{fill:#FFCE00;}
	.st9{font-family:'Gotham-Medium';}
	.st10{font-size:44.7716px;}
</style>
<g>
	<g>
		<g>
			<path class="st0" d="M398.8,89.2L398.8,89.2c-0.1-19.3-15.8-35-35.2-35c-19.4,0-35.2,15.7-35.2,35.2c0,19.4,15.7,35.2,35.2,35.2
				c10.7,0,20.2-4.8,26.7-12.3c-3.2-4.2-5.5-9.1-6.8-14.4c-3.3,7.7-11,13.1-19.9,13.1c-11.9,0-21.6-9.7-21.6-21.6
				c0-11.9,9.7-21.6,21.6-21.6c11.9,0,21.6,9.7,21.6,21.6h0c0.1,19.3,15.8,35,35.1,35v-13.5C408.5,110.8,398.8,101.1,398.8,89.2z"/>
			<path class="st1" d="M397.6,54.2c-4-15-17.7-26-33.9-26c-0.2,0-23.4,0-23.6,0v13.5c0.2,0,23.4,0,23.6,0c10,0,18.4,6.8,20.9,16
				c6.4,4.2,11.4,10.3,14.3,17.5v-7.6h21.6V54.2H397.6z"/>
			<g>
				<path class="st2" d="M381.8,101c-1,1.6-2.2,3-3.6,4.3c-7,7.1-16.8,11.6-27.6,11.6c-3.6,0-7.2-0.5-10.5-1.5
					c6.2,5.6,14.5,9,23.5,9c10.7,0,20.2-4.8,26.7-12.3c-3.1-4.1-5.4-8.8-6.6-13.9C383.1,99.2,382.5,100.2,381.8,101z"/>
				<path class="st2" d="M398.8,89.2L398.8,89.2c-0.1-11.1-5.2-20.9-13.3-27.3c2.4,5,3.7,10.6,3.7,16.5c0,5.8-1.3,11.2-3.5,16.2
					c2.6,16.9,17.1,29.9,34.7,29.9v-13.5C408.5,110.8,398.8,101.1,398.8,89.2z"/>
			</g>
			<path class="st3" d="M340.1,29v12.7c0.2,0,23.4,0,23.6,0c3.5,0,6.7,0.8,9.6,2.3C371.2,38.3,344.6,33.1,340.1,29z"/>
			<path class="st4" d="M397.6,54.2c-4-15-17.7-26-33.9-26c-0.2,0-0.3,0-0.5,0v0.1c17.4,3.8,30.4,19.2,30.4,37.7c0,0,0,0.1,0,0.1
				c2.1,2.8,3.9,5.8,5.2,9.1v-7.6l35.2,0V54.2L397.6,54.2z"/>
			<path class="st5" d="M342.1,89.3c0-11.9,9.7-21.6,21.6-21.6c6.1,0,11.6,2.6,15.6,6.6c2.1-4.4,3.5-9.2,3.8-14.4
				c-5.6-3.7-12.2-5.8-19.4-5.8c-19.4,0-35.2,15.7-35.2,35.2c0,1.1,0.1,2.3,0.2,3.4c4.4,2,9.3,3.2,14.4,3.4
				C342.4,94,342.1,91.7,342.1,89.3z"/>
			<g>
				<path class="st1" d="M350.5,59c-2.8,1.7-4,4.7-2.8,6.6c1.2,1.9,4.4,2.1,7.2,0.4c2.8-1.7,4-4.7,2.8-6.6
					C356.5,57.4,353.3,57.3,350.5,59z"/>
				<path class="st1" d="M341,66.6c-0.6,1.3,0,2.9,1.3,3.5c1.3,0.6,2.9,0,3.5-1.3s0-2.9-1.3-3.5C343.2,64.7,341.6,65.3,341,66.6z"/>
			</g>
			<path class="st2" d="M420.5,110.8c0,0,8.2,0.7,13.4-6.9v15.9c0,0-3.1,3.8-13.4,4.5C420.5,124.3,420.4,110.8,420.5,110.8z"/>
		</g>
	</g>
	<text transform="matrix(1 0 0 1 19.7167 123.2598)" class="st4 st6 st7">Binge</text>
	<text transform="matrix(1 0 0 1 250.7977 168.0195)" class="st8 st9 st10">MEDIA</text>
</g>
</svg>
